<?xml version="1.0" standalone="no"?><!DOCTYPE svg PUBLIC "-//W3C//DTD SVG 1.1//EN" "http://www.w3.org/Graphics/SVG/1.1/DTD/svg11.dtd"><svg t="1538294159925" class="icon" style="" viewBox="0 0 1024 1024" version="1.1" xmlns="http://www.w3.org/2000/svg" p-id="12256" xmlns:xlink="http://www.w3.org/1999/xlink" width="200" height="200"><defs><style type="text/css"></style></defs><path d="M128 108.8a19.2 19.2 0 1 1-19.2 19.2 19.2 19.2 0 0 1 19.2-19.2m0-12.8a32 32 0 1 0 32 32 32 32 0 0 0-32-32zM960 428.8a19.2 19.2 0 1 1-19.2 19.2 19.2 19.2 0 0 1 19.2-19.2m0-12.8a32 32 0 1 0 32 32 32 32 0 0 0-32-32zM960 180.48a6.4 6.4 0 1 1-8.96 8.96l-21.12-20.48-23.04 23.04a6.4 6.4 0 0 1-10.88-11.52l21.12-21.12-21.12-20.48a6.4 6.4 0 0 1 11.52-10.88l21.12 21.12 20.48-21.12a6.4 6.4 0 0 1 8.96 8.96l-21.12 20.48 20.48 21.12zM128 372.48a6.4 6.4 0 1 1-11.52 11.52l-20.48-23.04-21.12 23.04A6.4 6.4 0 1 1 64 372.48l21.12-21.12L64 330.88A6.4 6.4 0 0 1 75.52 320l21.12 21.12 20.48-21.12a6.4 6.4 0 1 1 10.88 10.88l-21.12 20.48 21.12 21.12zM832 864H192a6.4 6.4 0 1 1 0-12.8h640a6.4 6.4 0 1 1 0 12.8zM320 928H256a6.4 6.4 0 1 1 0-12.8h64a6.4 6.4 0 1 1 0 12.8zM448 928H384a6.4 6.4 0 1 1 0-12.8h64a6.4 6.4 0 1 1 0 12.8zM768 928h-64a6.4 6.4 0 1 1 0-12.8h64a6.4 6.4 0 1 1 0 12.8zM640 928H512a6.4 6.4 0 1 1 0-12.8h128a6.4 6.4 0 1 1 0 12.8zM128 864H64a6.4 6.4 0 1 1 0-12.8h64a6.4 6.4 0 1 1 0 12.8zM960 864h-64a6.4 6.4 0 1 1 0-12.8h64a6.4 6.4 0 1 1 0 12.8zM672 448a140.16 140.16 0 1 0-140.8-142.08A140.8 140.8 0 0 0 672 448z" fill="#3778FA" p-id="12257"></path><path d="M672 192a110.72 110.72 0 1 1-111.36 113.92A111.36 111.36 0 0 1 672 192z" fill="#EFF4FF" p-id="12258"></path><path d="M832 536.96a221.44 221.44 0 0 0-120.96-64 14.72 14.72 0 0 0-12.16 3.2 14.08 14.08 0 0 0-4.48 11.52L704 665.6l-30.08 23.68-30.08-23.68 10.24-175.36a14.08 14.08 0 0 0-4.48-11.52 14.72 14.72 0 0 0-9.6-3.2A202.24 202.24 0 0 0 542.08 512 222.08 222.08 0 0 0 384 408.32a14.72 14.72 0 0 0-12.16 3.2 14.08 14.08 0 0 0-4.48 11.52l10.24 175.36-30.08 23.68L320 598.4l10.24-175.36a14.08 14.08 0 0 0-4.48-11.52 14.72 14.72 0 0 0-12.16-3.2A220.8 220.8 0 0 0 128 626.56v92.16a14.08 14.08 0 0 0 14.08 14.08H448v52.48a14.08 14.08 0 0 0 14.08 14.08h416a14.08 14.08 0 0 0 14.08-14.08v-91.52A219.52 219.52 0 0 0 832 536.96zM337.28 375.04a140.16 140.16 0 1 0-128-154.24 140.8 140.8 0 0 0 128 154.24z" fill="#3778FA" p-id="12259"></path><path d="M364.16 128a110.72 110.72 0 1 1-122.88 96A111.36 111.36 0 0 1 364.16 128zM152.96 626.56a192 192 0 0 1 145.92-188.16l-9.6 165.76a14.08 14.08 0 0 0 5.76 12.16l45.44 35.2a14.72 14.72 0 0 0 17.92 0l45.44-35.2a14.08 14.08 0 0 0 5.76-12.16l-10.88-165.76a192 192 0 0 1 145.92 188.16V704H152.96V626.56z" fill="#EFF4FF" p-id="12260"></path><path d="M871.04 773.12H479.36v-39.04h80a14.72 14.72 0 0 0 16.64-14.08V626.56a222.08 222.08 0 0 0-17.92-87.04 163.84 163.84 0 0 1 67.2-33.92l-10.24 166.4a14.08 14.08 0 0 0 5.76 12.16l45.44 35.2a14.72 14.72 0 0 0 17.92 0l45.44-35.2a14.08 14.08 0 0 0 5.76-12.16l-10.24-165.76a192 192 0 0 1 145.92 188.16v78.72z" fill="#EFF4FF" p-id="12261"></path></svg>